<?xml version="1.0" encoding="UTF-8" standalone="no"?>
<!-- Created with Inkscape (http://www.inkscape.org/) -->

<svg
   xmlns:dc="http://purl.org/dc/elements/1.1/"
   xmlns:cc="http://creativecommons.org/ns#"
   xmlns:rdf="http://www.w3.org/1999/02/22-rdf-syntax-ns#"
   xmlns:svg="http://www.w3.org/2000/svg"
   xmlns="http://www.w3.org/2000/svg"
   xmlns:xlink="http://www.w3.org/1999/xlink"
   xmlns:sodipodi="http://sodipodi.sourceforge.net/DTD/sodipodi-0.dtd"
   xmlns:inkscape="http://www.inkscape.org/namespaces/inkscape"
   width="3385.676"
   height="2087.2395"
   id="svg2"
   version="1.1"
   inkscape:version="0.92.0 r15299"
   sodipodi:docname="detail-commit.svg"
   inkscape:export-filename="/home/tom/workspace/tclavier/tp-git-blog/latex/detail-commit.png"
   inkscape:export-xdpi="29.040001"
   inkscape:export-ydpi="29.040001">
  <defs
     id="defs4">
    <linearGradient
       id="linearGradient2224">
      <stop
         id="stop2226"
         offset="0"
         style="stop-color:#7c7c7c;stop-opacity:1;" />
      <stop
         id="stop2228"
         offset="1"
         style="stop-color:#b8b8b8;stop-opacity:1;" />
    </linearGradient>
    <linearGradient
       gradientTransform="translate(6.161836,4.033411)"
       gradientUnits="userSpaceOnUse"
       y2="42.0625"
       x2="39.0625"
       y1="39.15625"
       x1="36.8125"
       id="linearGradient2222"
       xlink:href="#linearGradient2216"
       inkscape:collect="always" />
    <linearGradient
       id="linearGradient2216"
       inkscape:collect="always">
      <stop
         id="stop2218"
         offset="0"
         style="stop-color:#000000;stop-opacity:1;" />
      <stop
         id="stop2220"
         offset="1"
         style="stop-color:#000000;stop-opacity:0;" />
    </linearGradient>
    <linearGradient
       gradientTransform="matrix(0.993566,0,0,1,6.219859,4.033411)"
       gradientUnits="userSpaceOnUse"
       y2="42.007351"
       x2="30.811172"
       y1="26.696676"
       x1="26.076092"
       id="linearGradient2265"
       xlink:href="#linearGradient2259"
       inkscape:collect="always" />
    <linearGradient
       id="linearGradient2259"
       inkscape:collect="always">
      <stop
         id="stop2261"
         offset="0"
         style="stop-color:#ffffff;stop-opacity:1;" />
      <stop
         id="stop2263"
         offset="1"
         style="stop-color:#ffffff;stop-opacity:0;" />
    </linearGradient>
    <linearGradient
       gradientTransform="matrix(1.060837,0,0,0.987595,4.641161,4.108291)"
       gradientUnits="userSpaceOnUse"
       y2="39.498238"
       x2="35.785294"
       y1="18.99214"
       x1="22.308331"
       id="linearGradient15224"
       xlink:href="#linearGradient15218"
       inkscape:collect="always" />
    <linearGradient
       id="linearGradient15218">
      <stop
         id="stop15220"
         offset="0"
         style="stop-color:#f8f8f7;stop-opacity:1;" />
      <stop
         style="stop-color:#e8e8e8;stop-opacity:1;"
         offset="0.59928656"
         id="stop2269" />
      <stop
         id="stop15222"
         offset="1"
         style="stop-color:#e2e2de;stop-opacity:1;" />
    </linearGradient>
    <radialGradient
       gradientUnits="userSpaceOnUse"
       gradientTransform="matrix(1,0,0,0.651376,0,10.75754)"
       r="15.571428"
       fy="30.857143"
       fx="22.571428"
       cy="30.857143"
       cx="22.571428"
       id="radialGradient3564"
       xlink:href="#linearGradient3558"
       inkscape:collect="always" />
    <linearGradient
       id="linearGradient3558"
       inkscape:collect="always">
      <stop
         id="stop3560"
         offset="0"
         style="stop-color:#000000;stop-opacity:1;" />
      <stop
         id="stop3562"
         offset="1"
         style="stop-color:#000000;stop-opacity:0;" />
    </linearGradient>
    <linearGradient
       id="linearGradient2591">
      <stop
         id="stop2593"
         offset="0"
         style="stop-color:#9db029;stop-opacity:1;" />
      <stop
         id="stop2595"
         offset="1.0000000"
         style="stop-color:#869623;stop-opacity:1.0000000;" />
    </linearGradient>
    <linearGradient
       id="linearGradient5157">
      <stop
         id="stop5159"
         offset="0"
         style="stop-color:#8ae234;stop-opacity:1;" />
      <stop
         id="stop5161"
         offset="1"
         style="stop-color:#555753;stop-opacity:0;" />
    </linearGradient>
    <linearGradient
       id="linearGradient5048">
      <stop
         id="stop5050"
         offset="0"
         style="stop-color:black;stop-opacity:0;" />
      <stop
         style="stop-color:black;stop-opacity:1;"
         offset="0.5"
         id="stop5056" />
      <stop
         id="stop5052"
         offset="1"
         style="stop-color:black;stop-opacity:0;" />
    </linearGradient>
    <inkscape:perspective
       id="perspective56"
       inkscape:persp3d-origin="25.6 : 17.066667 : 1"
       inkscape:vp_z="51.2 : 25.6 : 1"
       inkscape:vp_y="0 : 1066.6667 : 0"
       inkscape:vp_x="0 : 25.6 : 1"
       sodipodi:type="inkscape:persp3d" />
    <linearGradient
       inkscape:collect="always"
       xlink:href="#linearGradient5157-2"
       id="linearGradient8751-1"
       gradientUnits="userSpaceOnUse"
       gradientTransform="matrix(1.188,0,0,1.188,334.32728,300.39133)"
       x1="10.729691"
       y1="26.422195"
       x2="2.3941064"
       y2="26.422195" />
    <linearGradient
       id="linearGradient5157-2">
      <stop
         id="stop5159-1"
         offset="0"
         style="stop-color:#555753" />
      <stop
         id="stop5161-2"
         offset="1"
         style="stop-color:#555753;stop-opacity:0;" />
    </linearGradient>
    <linearGradient
       inkscape:collect="always"
       xlink:href="#linearGradient5157-3"
       id="linearGradient8751-2"
       gradientUnits="userSpaceOnUse"
       gradientTransform="matrix(1.7723126,0,0,1.7723126,344.46025,285.88124)"
       x1="10.729691"
       y1="26.422195"
       x2="-64.779335"
       y2="26.847343" />
    <linearGradient
       id="linearGradient5157-3">
      <stop
         id="stop5159-8"
         offset="0"
         style="stop-color:#8ae234;stop-opacity:1;" />
      <stop
         id="stop5161-8"
         offset="1"
         style="stop-color:#555753;stop-opacity:0;" />
    </linearGradient>
    <linearGradient
       inkscape:collect="always"
       xlink:href="#linearGradient5157-4"
       id="linearGradient8751-16"
       gradientUnits="userSpaceOnUse"
       gradientTransform="matrix(1.7723126,0,0,1.7723126,344.46025,285.88124)"
       x1="10.729691"
       y1="26.422195"
       x2="-64.779335"
       y2="26.847343" />
    <linearGradient
       id="linearGradient5157-4">
      <stop
         id="stop5159-4"
         offset="0"
         style="stop-color:#8ae234;stop-opacity:1;" />
      <stop
         id="stop5161-1"
         offset="1"
         style="stop-color:#555753;stop-opacity:0;" />
    </linearGradient>
    <linearGradient
       inkscape:collect="always"
       xlink:href="#linearGradient5157-7"
       id="linearGradient8751-9"
       gradientUnits="userSpaceOnUse"
       gradientTransform="matrix(1.7723126,0,0,1.7723126,344.46025,285.88124)"
       x1="10.729691"
       y1="26.422195"
       x2="-64.779335"
       y2="26.847343" />
    <linearGradient
       id="linearGradient5157-7">
      <stop
         id="stop5159-2"
         offset="0"
         style="stop-color:#8ae234;stop-opacity:1;" />
      <stop
         id="stop5161-6"
         offset="1"
         style="stop-color:#555753;stop-opacity:0;" />
    </linearGradient>
    <linearGradient
       inkscape:collect="always"
       xlink:href="#linearGradient5157-0"
       id="linearGradient8751-0"
       gradientUnits="userSpaceOnUse"
       gradientTransform="matrix(1.7723126,0,0,1.7723126,344.46025,285.88124)"
       x1="10.729691"
       y1="26.422195"
       x2="-64.779335"
       y2="26.847343" />
    <linearGradient
       id="linearGradient5157-0">
      <stop
         id="stop5159-5"
         offset="0"
         style="stop-color:#8ae234;stop-opacity:1;" />
      <stop
         id="stop5161-3"
         offset="1"
         style="stop-color:#555753;stop-opacity:0;" />
    </linearGradient>
    <linearGradient
       y2="25.638269"
       x2="-183.26859"
       y1="24.004047"
       x1="-27.960678"
       gradientTransform="matrix(1.7723126,0,0,1.7723126,560.40613,382.45867)"
       gradientUnits="userSpaceOnUse"
       id="linearGradient9584-5-5"
       xlink:href="#linearGradient5157-0-6"
       inkscape:collect="always" />
    <linearGradient
       id="linearGradient5157-0-6">
      <stop
         id="stop5159-5-8"
         offset="0"
         style="stop-color:#8ae234;stop-opacity:1;" />
      <stop
         id="stop5161-3-6"
         offset="1"
         style="stop-color:#555753;stop-opacity:0;" />
    </linearGradient>
    <linearGradient
       inkscape:collect="always"
       xlink:href="#linearGradient5157"
       id="linearGradient9699"
       gradientUnits="userSpaceOnUse"
       gradientTransform="matrix(10.323369,0,0,10.323369,54.271097,-229.62635)"
       x1="10.729691"
       y1="26.422195"
       x2="-64.779335"
       y2="26.847343" />
    <linearGradient
       inkscape:collect="always"
       xlink:href="#linearGradient5157-3"
       id="linearGradient9734"
       gradientUnits="userSpaceOnUse"
       gradientTransform="matrix(8.4945076,0,0,10.323369,1312.4116,268.04973)"
       x1="21.134172"
       y1="25.241333"
       x2="-79.48912"
       y2="25.07605" />
    <linearGradient
       inkscape:collect="always"
       xlink:href="#linearGradient5157-4-8"
       id="linearGradient9751-8"
       gradientUnits="userSpaceOnUse"
       gradientTransform="matrix(-1.7723126,0,0,1.7723126,458.56236,339.1264)"
       x1="10.729691"
       y1="26.422195"
       x2="-64.779335"
       y2="26.847343" />
    <linearGradient
       id="linearGradient5157-4-8">
      <stop
         id="stop5159-4-4"
         offset="0"
         style="stop-color:#729fcf;stop-opacity:1;" />
      <stop
         id="stop5161-1-6"
         offset="1"
         style="stop-color:#555753;stop-opacity:0;" />
    </linearGradient>
    <linearGradient
       y2="26.847343"
       x2="-64.779335"
       y1="26.422195"
       x1="10.729691"
       gradientTransform="matrix(-1.7723126,0,0,1.7723126,463.77638,438.33482)"
       gradientUnits="userSpaceOnUse"
       id="linearGradient9768-6"
       xlink:href="#linearGradient5157-4-8-2"
       inkscape:collect="always" />
    <linearGradient
       id="linearGradient5157-4-8-2">
      <stop
         id="stop5159-4-4-4"
         offset="0"
         style="stop-color:#729fcf;stop-opacity:1;" />
      <stop
         id="stop5161-1-6-7"
         offset="1"
         style="stop-color:#555753;stop-opacity:0;" />
    </linearGradient>
    <linearGradient
       inkscape:collect="always"
       xlink:href="#linearGradient5157-0-6-9"
       id="linearGradient9845-4"
       gradientUnits="userSpaceOnUse"
       gradientTransform="matrix(-1.7723126,0,0,1.7723126,253.20494,384.74893)"
       x1="-27.960678"
       y1="24.004047"
       x2="-183.26859"
       y2="25.638269" />
    <linearGradient
       id="linearGradient5157-0-6-9">
      <stop
         id="stop5159-5-8-6"
         offset="0"
         style="stop-color:#8ae234;stop-opacity:1;" />
      <stop
         id="stop5161-3-6-8"
         offset="1"
         style="stop-color:#555753;stop-opacity:0;" />
    </linearGradient>
    <linearGradient
       inkscape:collect="always"
       xlink:href="#linearGradient5157"
       id="linearGradient9699-9"
       gradientUnits="userSpaceOnUse"
       gradientTransform="matrix(10.323369,0,0,10.323369,-429.21675,-94.734176)"
       x1="92.799622"
       y1="24.060471"
       x2="-64.779335"
       y2="26.847343" />
    <linearGradient
       inkscape:collect="always"
       xlink:href="#linearGradient5157"
       id="linearGradient9699-9-2"
       gradientUnits="userSpaceOnUse"
       gradientTransform="matrix(10.323369,0,0,10.323369,-246.35962,232.88487)"
       x1="70.068024"
       y1="24.650902"
       x2="-64.779335"
       y2="26.847343" />
    <linearGradient
       inkscape:collect="always"
       xlink:href="#linearGradient5157"
       id="linearGradient9699-9-9"
       gradientUnits="userSpaceOnUse"
       gradientTransform="matrix(10.323369,0,0,10.323369,219.92611,552.88487)"
       x1="43.793839"
       y1="24.060471"
       x2="-64.779335"
       y2="26.847343" />
    <linearGradient
       inkscape:collect="always"
       xlink:href="#linearGradient5157"
       id="linearGradient9699-9-92"
       gradientUnits="userSpaceOnUse"
       gradientTransform="matrix(10.323369,0,0,10.323369,-410.93104,823.51345)"
       x1="86.304878"
       y1="24.060471"
       x2="-64.779335"
       y2="26.847343" />
  </defs>
  <sodipodi:namedview
     id="base"
     pagecolor="#ffffff"
     bordercolor="#666666"
     borderopacity="1.0"
     inkscape:pageopacity="0.0"
     inkscape:pageshadow="2"
     inkscape:zoom="0.35"
     inkscape:cx="1910.4375"
     inkscape:cy="818.43835"
     inkscape:document-units="px"
     inkscape:current-layer="layer1"
     showgrid="false"
     inkscape:window-width="1920"
     inkscape:window-height="1016"
     inkscape:window-x="0"
     inkscape:window-y="27"
     inkscape:window-maximized="1"
     fit-margin-top="0"
     fit-margin-left="0"
     fit-margin-right="0"
     fit-margin-bottom="0">
    <inkscape:grid
       type="xygrid"
       id="grid4253"
       originx="-0.0001337793"
       originy="48.558992"
       spacingx="1.0666667"
       spacingy="1.0666667" />
  </sodipodi:namedview>
  <metadata
     id="metadata7">
    <rdf:RDF>
      <cc:Work
         rdf:about="">
        <dc:format>image/svg+xml</dc:format>
        <dc:type
           rdf:resource="http://purl.org/dc/dcmitype/StillImage" />
        <dc:title />
      </cc:Work>
    </rdf:RDF>
  </metadata>
  <g
     inkscape:label="Calque 1"
     inkscape:groupmode="layer"
     id="layer1"
     transform="translate(1285.4857,606.60606)">
    <rect
       style="fill:#eeeeec;fill-opacity:1;stroke:#2e3436;stroke-width:11.7845335;stroke-linecap:round;stroke-linejoin:round;stroke-miterlimit:4;stroke-dasharray:none;stroke-dashoffset:0;stroke-opacity:1"
       id="rect2985"
       width="1103.4409"
       height="2075.4548"
       x="-1279.5934"
       y="-600.71368"
       rx="6.7211237"
       ry="14.021303" />
    <rect
       style="color:#000000;clip-rule:nonzero;display:inline;overflow:visible;visibility:visible;opacity:1;isolation:auto;mix-blend-mode:normal;color-interpolation:sRGB;color-interpolation-filters:linearRGB;solid-color:#000000;solid-opacity:1;fill:none;fill-opacity:1;fill-rule:nonzero;stroke:#a40000;stroke-width:11.67449379;stroke-linecap:butt;stroke-linejoin:round;stroke-miterlimit:4;stroke-dasharray:none;stroke-dashoffset:0;stroke-opacity:1;color-rendering:auto;image-rendering:auto;shape-rendering:auto;text-rendering:auto;enable-background:accumulate"
       id="rect4255"
       width="2224.8208"
       height="2075.5649"
       x="-130.46756"
       y="-600.7688"
       rx="1.207834"
       ry="2.5271235" />
    <g
       id="g9726"
       transform="matrix(5.4607511,0,0,5.4607511,-1878.7834,-1841.1044)">
      <rect
         ry="2.5046909"
         rx="1.2309679"
         y="255.6142"
         x="329.3743"
         height="335.97333"
         width="187.52"
         id="rect2987"
         style="fill:#d3d7cf;fill-opacity:1;stroke:#2e3436;stroke-width:2.1315918;stroke-linecap:round;stroke-linejoin:round;stroke-miterlimit:4;stroke-dasharray:none;stroke-dashoffset:0;stroke-opacity:1" />
      <rect
         ry="2.567651"
         rx="1.2308033"
         y="255.6142"
         x="534.4743"
         height="335.97333"
         width="183.61334"
         id="rect2989"
         style="fill:#babdb6;fill-opacity:1;stroke:#2e3436;stroke-width:2.15807223;stroke-linecap:round;stroke-linejoin:round;stroke-miterlimit:4;stroke-dasharray:none;stroke-dashoffset:0;stroke-opacity:1" />
    </g>
    <text
       xml:space="preserve"
       style="font-style:normal;font-variant:normal;font-weight:normal;font-stretch:normal;font-size:116.49601746px;line-height:100%;font-family:'Liberation Serif';-inkscape-font-specification:'Liberation Serif';text-align:start;letter-spacing:0px;word-spacing:0px;writing-mode:lr-tb;text-anchor:start;fill:#000000;fill-opacity:1;stroke:none;stroke-width:1.06666672"
       x="-1209.6211"
       y="-404.42953"
       id="text2991"><tspan
         sodipodi:role="line"
         id="tspan2993"
         x="-1209.6211"
         y="-404.42953"
         style="stroke-width:1.06666672">Répertoire de travail</tspan></text>
    <text
       xml:space="preserve"
       style="font-style:normal;font-variant:normal;font-weight:normal;font-stretch:normal;font-size:116.49601746px;line-height:100%;font-family:'Liberation Serif';-inkscape-font-specification:'Liberation Serif';text-align:start;letter-spacing:0px;word-spacing:0px;writing-mode:lr-tb;text-anchor:start;fill:#000000;fill-opacity:1;stroke:none;stroke-width:1.06666672"
       x="291.29715"
       y="-309.48325"
       id="text2995"><tspan
         sodipodi:role="line"
         id="tspan2997"
         x="291.29715"
         y="-309.48325"
         style="stroke-width:1.06666672">Index</tspan></text>
    <text
       xml:space="preserve"
       style="font-style:normal;font-variant:normal;font-weight:normal;font-stretch:normal;font-size:116.49601746px;line-height:100%;font-family:'Liberation Serif';-inkscape-font-specification:'Liberation Serif';text-align:start;letter-spacing:0px;word-spacing:0px;writing-mode:lr-tb;text-anchor:start;fill:#000000;fill-opacity:1;stroke:none;stroke-width:1.06666672"
       x="1322.6478"
       y="-321.31485"
       id="text2999"><tspan
         sodipodi:role="line"
         id="tspan3001"
         x="1322.6478"
         y="-321.31485"
         style="stroke-width:1.06666672">Historique</tspan></text>
    <path
       inkscape:connector-curvature="0"
       sodipodi:nodetypes="ccccccccc"
       id="path8643"
       d="m -638.12494,-33.511761 0.2726,103.120882 h 997.1653 V 120.42754 L 478.70076,17.829842 359.29123,-83.421337 v 49.941088 l -997.14357,-0.03494 z"
       style="color:#000000;display:inline;overflow:visible;visibility:visible;fill:url(#linearGradient9699);fill-opacity:1;fill-rule:evenodd;stroke:none;stroke-width:1.06666708;marker:none" />
    <path
       inkscape:connector-curvature="0"
       sodipodi:nodetypes="ccccccccc"
       id="path8643-0"
       d="m 742.67869,464.16432 0.22431,103.12087 h 680.0782 v 50.81843 l 98.2375,-102.5977 -98.2553,-101.25118 v 49.94109 l -680.0604,-0.035 z"
       style="color:#000000;display:inline;overflow:visible;visibility:visible;fill:url(#linearGradient9734);fill-opacity:1;fill-rule:evenodd;stroke:none;stroke-width:1.06666708;marker:none" />
    <text
       xml:space="preserve"
       style="font-style:normal;font-variant:normal;font-weight:normal;font-stretch:normal;font-size:105.2036972px;line-height:100%;font-family:'Linux Libertine O';-inkscape-font-specification:'Linux Libertine O';text-align:start;letter-spacing:0px;word-spacing:0px;writing-mode:lr-tb;text-anchor:start;fill:#000000;fill-opacity:1;stroke:none;stroke-width:1.06666672px;stroke-linecap:butt;stroke-linejoin:miter;stroke-opacity:1"
       x="-63.940647"
       y="-501.44186"
       id="text4257"><tspan
         sodipodi:role="line"
         x="-63.940647"
         y="-501.44186"
         id="tspan4261"
         style="stroke-width:1.06666672px">.git</tspan></text>
    <path
       id="path4383"
       d="m -996.72378,140.96245 v 21.81819 q 0,4.54545 -3.1818,7.72727 -3.18182,3.18182 -7.72732,3.18182 h -47.2727 v 47.27272 q 0,4.54545 -3.1818,7.72728 -3.1818,3.18181 -7.7273,3.18181 h -21.8182 q -4.5454,0 -7.7272,-3.18181 -3.1819,-3.18183 -3.1819,-7.72728 v -47.27272 h -47.2726 q -4.5455,0 -7.7274,-3.18182 -3.1817,-3.18182 -3.1817,-7.72727 v -21.81819 q 0,-4.54545 3.1817,-7.72727 3.1819,-3.18181 7.7274,-3.18181 h 47.2726 V 82.780628 q 0,-4.545456 3.1819,-7.727274 3.1818,-3.181818 7.7272,-3.181818 h 21.8182 q 4.5455,0 7.7273,3.181818 3.1818,3.181818 3.1818,7.727274 v 47.272742 h 47.2727 q 4.5455,0 7.72732,3.18181 3.1818,3.18182 3.1818,7.72727 z"
       inkscape:connector-curvature="0"
       style="fill:#4e9a06;stroke-width:1.06666672" />
    <flowRoot
       xml:space="preserve"
       id="flowRoot4392"
       style="font-style:normal;font-variant:normal;font-weight:normal;font-stretch:normal;font-size:16px;line-height:100%;font-family:'Linux Libertine O';-inkscape-font-specification:'Linux Libertine O';text-align:start;letter-spacing:0px;word-spacing:0px;writing-mode:lr-tb;text-anchor:start;fill:#000000;fill-opacity:1;stroke:none;stroke-width:1.06666672px;stroke-linecap:butt;stroke-linejoin:miter;stroke-opacity:1"><flowRegion
         id="flowRegion4394"
         style="stroke-width:1.06666672px"><rect
           id="rect4396"
           width="1386.6666"
           height="338.28571"
           x="2182.0952"
           y="1243.049"
           style="stroke-width:1.13777781px" /></flowRegion><flowPara
         id="flowPara4398"
         style="stroke-width:1.06666672px" /></flowRoot>    <path
       id="path4383-6"
       d="m -699.58089,841.91477 v 21.81819 q 0,4.54545 -3.18179,7.72727 -3.18179,3.18183 -7.72725,3.18183 h -47.27273 v 47.27272 q 0,4.54545 -3.18188,7.72728 -3.1818,3.18182 -7.72726,3.18182 h -21.81817 q -4.54546,0 -7.72726,-3.18182 -3.1818,-3.18183 -3.1818,-7.72728 v -47.27272 h -47.27271 q -4.54547,0 -7.72735,-3.18183 -3.1818,-3.18182 -3.1818,-7.72727 v -21.81819 q 0,-4.54545 3.1818,-7.72726 3.18188,-3.18184 7.72735,-3.18184 h 47.27271 v -47.27273 q 0,-4.54546 3.1818,-7.72728 3.1818,-3.18182 7.72726,-3.18182 h 21.81817 q 4.54546,0 7.72726,3.18182 3.18188,3.18182 3.18188,7.72728 v 47.27273 h 47.27273 q 4.54546,0 7.72725,3.18184 3.18179,3.18181 3.18179,7.72726 z"
       inkscape:connector-curvature="0"
       style="fill:#4e9a06;stroke-width:1.06666672" />
    <path
       id="path4383-7"
       d="m -983.00945,1063.7814 v 21.8182 q 0,4.5455 -3.18179,7.7273 -3.18179,3.1818 -7.72726,3.1818 h -47.2727 v 47.2727 q 0,4.5455 -3.1819,7.7273 -3.1818,3.1819 -7.7273,3.1819 h -21.8181 q -4.5455,0 -7.7273,-3.1819 -3.1818,-3.1818 -3.1818,-7.7273 v -47.2727 h -47.2727 q -4.5455,0 -7.7273,-3.1818 -3.1819,-3.1818 -3.1819,-7.7273 v -21.8182 q 0,-4.5455 3.1819,-7.7272 3.1818,-3.1819 7.7273,-3.1819 h 47.2727 v -47.2726 q 0,-4.5455 3.1818,-7.72738 3.1818,-3.18187 7.7273,-3.18187 h 21.8181 q 4.5455,0 7.7273,3.18187 3.1819,3.18188 3.1819,7.72738 v 47.2726 h 47.2727 q 4.54547,0 7.72726,3.1819 3.18179,3.1817 3.18179,7.7272 z"
       inkscape:connector-curvature="0"
       style="fill:#4e9a06;stroke-width:1.06666672" />
    <path
       id="path4383-5"
       d="m -995.19995,689.53382 v 21.81819 q 0,4.54545 -3.18179,7.72728 -3.18176,3.18182 -7.72726,3.18182 h -47.2727 v 47.27272 q 0,4.54546 -3.1819,7.72728 -3.1818,3.18181 -7.7272,3.18181 h -21.8182 q -4.5455,0 -7.7273,-3.18181 -3.1818,-3.18182 -3.1818,-7.72728 v -47.27272 h -47.2727 q -4.5455,0 -7.7273,-3.18182 -3.1818,-3.18183 -3.1818,-7.72728 v -21.81819 q 0,-4.54544 3.1818,-7.72726 3.1818,-3.18183 7.7273,-3.18183 h 47.2727 v -47.27274 q 0,-4.54546 3.1818,-7.72728 3.1818,-3.18181 7.7273,-3.18181 h 21.8182 q 4.5454,0 7.7272,3.18181 3.1819,3.18182 3.1819,7.72728 v 47.27274 h 47.2727 q 4.5455,0 7.72726,3.18183 3.18179,3.18182 3.18179,7.72726 z"
       inkscape:connector-curvature="0"
       style="fill:#4e9a06;stroke-width:1.06666672" />
    <path
       id="path4383-35"
       d="M -382.6285,561.53381 V 583.352 q 0,4.54545 -3.18179,7.72727 -3.1818,3.18183 -7.72726,3.18183 h -47.27272 v 47.27272 q 0,4.54545 -3.18189,7.72728 -3.18179,3.18182 -7.72725,3.18182 h -21.81818 q -4.54546,0 -7.72725,-3.18182 -3.18181,-3.18183 -3.18181,-7.72728 V 594.2611 h -47.27271 q -4.54546,0 -7.72735,-3.18183 -3.18179,-3.18182 -3.18179,-7.72727 v -21.81819 q 0,-4.54545 3.18179,-7.72726 3.18189,-3.18184 7.72735,-3.18184 h 47.27271 v -47.27273 q 0,-4.54546 3.18181,-7.72728 3.18179,-3.18182 7.72725,-3.18182 h 21.81818 q 4.54546,0 7.72725,3.18182 3.18189,3.18182 3.18189,7.72728 v 47.27273 h 47.27272 q 4.54546,0 7.72726,3.18184 3.18179,3.18181 3.18179,7.72726 z"
       inkscape:connector-curvature="0"
       style="fill:#4e9a06;stroke-width:1.06666672" />
    <path
       id="path4510"
       d="m -515.19989,11.438601 v 21.818176 q 0,4.545461 -3.18182,7.727274 -3.18182,3.181814 -7.72727,3.181814 h -138.18183 q -4.54545,0 -7.72727,-3.181814 -3.18181,-3.181813 -3.18181,-7.727274 V 11.438601 q 0,-4.5454615 3.18181,-7.7272748 3.18182,-3.181824 7.72727,-3.181824 h 138.18183 q 4.54545,0 7.72727,3.181824 3.18182,3.1818133 3.18182,7.7272748 z"
       inkscape:connector-curvature="0"
       style="fill:#a40000;stroke-width:1.06666672" />
    <path
       id="path4510-9"
       d="m -327.77136,259.81954 v 21.81818 q 0,4.54546 -3.18187,7.72727 -3.18176,3.18182 -7.72725,3.18182 h -138.18176 q -4.54549,0 -7.72736,-3.18182 -3.18176,-3.18181 -3.18176,-7.72727 v -21.81818 q 0,-4.54546 3.18176,-7.72727 3.18187,-3.18183 7.72736,-3.18183 h 138.18176 q 4.54549,0 7.72725,3.18183 3.18187,3.18181 3.18187,7.72727 z"
       inkscape:connector-curvature="0"
       style="fill:#a40000;stroke-width:1.06666672" />
    <path
       id="path4510-1"
       d="m -778.81898,473.15286 v 21.81818 q 0,4.54546 -3.18186,7.72727 -3.18176,3.18182 -7.72726,3.18182 h -138.18176 q -4.54549,0 -7.72736,-3.18182 -3.18176,-3.18181 -3.18176,-7.72727 v -21.81818 q 0,-4.54546 3.18176,-7.72727 3.18187,-3.18182 7.72736,-3.18182 h 138.18176 q 4.5455,0 7.72726,3.18182 3.18186,3.18181 3.18186,7.72727 z"
       inkscape:connector-curvature="0"
       style="fill:#a40000;stroke-width:1.06666672" />
    <path
       id="path4510-2"
       d="m -443.58089,1046.1053 v 21.8181 q 0,4.5455 -3.18186,7.7273 -3.18176,3.1818 -7.72726,3.1818 h -138.18176 q -4.54549,0 -7.72736,-3.1818 -3.18176,-3.1818 -3.18176,-7.7273 v -21.8181 q 0,-4.5455 3.18176,-7.7273 3.18187,-3.1818 7.72736,-3.1818 h 138.18176 q 4.5455,0 7.72726,3.1818 3.18186,3.1818 3.18186,7.7273 z"
       inkscape:connector-curvature="0"
       style="fill:#a40000;stroke-width:1.06666672" />
    <path
       id="path4510-7"
       d="m -693.48564,1259.4386 v 21.8181 q 0,4.5455 -3.18187,7.7273 -3.18176,3.1819 -7.72725,3.1819 h -138.18176 q -4.5455,0 -7.72736,-3.1819 -3.18176,-3.1818 -3.18176,-7.7273 v -21.8181 q 0,-4.5455 3.18176,-7.7272 3.18186,-3.1819 7.72736,-3.1819 h 138.18176 q 4.54549,0 7.72725,3.1819 3.18187,3.1817 3.18187,7.7272 z"
       inkscape:connector-curvature="0"
       style="fill:#a40000;stroke-width:1.06666672" />
    <path
       id="path4510-0"
       d="m -336.91421,802.29573 v 21.81818 q 0,4.54546 -3.18186,7.72727 -3.18176,3.18182 -7.72726,3.18182 h -138.18176 q -4.54549,0 -7.72736,-3.18182 -3.18176,-3.18181 -3.18176,-7.72727 v -21.81818 q 0,-4.54546 3.18176,-7.72727 3.18187,-3.18183 7.72736,-3.18183 h 138.18176 q 4.5455,0 7.72726,3.18183 3.18186,3.18181 3.18186,7.72727 z"
       inkscape:connector-curvature="0"
       style="fill:#a40000;stroke-width:1.06666672" />
    <path
       inkscape:connector-curvature="0"
       sodipodi:nodetypes="ccccccccc"
       id="path8643-6"
       d="m -1121.6128,101.38042 0.2726,103.12088 H 515.82512 v 50.81842 L 635.21292,152.72203 515.80339,51.470844 v 49.941086 l -1637.14359,-0.035 z"
       style="color:#000000;display:inline;overflow:visible;visibility:visible;fill:url(#linearGradient9699-9);fill-opacity:1;fill-rule:evenodd;stroke:none;stroke-width:1.06666708;marker:none" />
    <path
       inkscape:connector-curvature="0"
       sodipodi:nodetypes="ccccccccc"
       id="path8643-6-7"
       d="m -938.75564,428.99948 0.27264,103.12087 H 400.01556 v 50.81842 L 519.4034,480.34108 399.99391,379.0899 v 49.94109 L -938.483,428.996 Z"
       style="color:#000000;display:inline;overflow:visible;visibility:visible;fill:url(#linearGradient9699-9-2);fill-opacity:1;fill-rule:evenodd;stroke:none;stroke-width:1.06666708;marker:none" />
    <path
       inkscape:connector-curvature="0"
       sodipodi:nodetypes="ccccccccc"
       id="path8643-6-75"
       d="m -472.46991,748.99948 0.27264,103.12093 H 588.96796 v 50.81845 L 708.3558,800.34106 588.9463,699.0899 v 49.94109 l -1061.14357,-0.035 z"
       style="color:#000000;display:inline;overflow:visible;visibility:visible;fill:url(#linearGradient9699-9-9);fill-opacity:1;fill-rule:evenodd;stroke:none;stroke-width:1.06666708;marker:none" />
    <path
       inkscape:connector-curvature="0"
       sodipodi:nodetypes="ccccccccc"
       id="path8643-6-73"
       d="m -1103.327,1019.6281 0.2726,103.1209 H 363.44414 v 50.8184 L 482.83198,1070.9697 363.42249,969.71851 v 49.94109 l -1466.47689,-0.035 z"
       style="color:#000000;display:inline;overflow:visible;visibility:visible;fill:url(#linearGradient9699-9-92);fill-opacity:1;fill-rule:evenodd;stroke:none;stroke-width:1.06666708;marker:none" />
    <path
       style="color:#000000;clip-rule:nonzero;display:inline;overflow:visible;visibility:visible;opacity:1;isolation:auto;mix-blend-mode:normal;color-interpolation:sRGB;color-interpolation-filters:linearRGB;solid-color:#000000;solid-opacity:1;fill:none;fill-opacity:1;fill-rule:nonzero;stroke:#204a87;stroke-width:11.73333359;stroke-linecap:butt;stroke-linejoin:round;stroke-miterlimit:4;stroke-dasharray:none;stroke-dashoffset:0;stroke-opacity:1;color-rendering:auto;image-rendering:auto;shape-rendering:auto;text-rendering:auto;enable-background:accumulate"
       id="path4637"
       sodipodi:type="arc"
       sodipodi:cx="427.27621"
       sodipodi:cy="538.91913"
       sodipodi:rx="332.19049"
       sodipodi:ry="697.90472"
       sodipodi:start="2.8156799"
       sodipodi:end="2.8134882"
       d="M 112.5726,762.36981 A 332.19049,697.90472 0 0 1 320.74516,-122.12458 332.19049,697.90472 0 0 1 741.86308,314.74404 332.19049,697.90472 0 0 1 534.15201,1199.7172 332.19049,697.90472 0 0 1 112.80646,763.81835"
       sodipodi:open="true" />
    <path
       id="path4510-6"
       d="M 458.51437,3.8195289 V 25.637706 q 0,4.545461 -3.18187,7.727273 -3.18176,3.181814 -7.72725,3.181814 H 309.42349 q -4.5455,0 -7.72736,-3.181814 -3.18176,-3.181812 -3.18176,-7.727273 V 3.8195289 q 0,-4.5454614 3.18176,-7.7272747 3.18186,-3.181824 7.72736,-3.181824 h 138.18176 q 4.54549,0 7.72725,3.181824 3.18187,3.1818133 3.18187,7.7272747 z"
       inkscape:connector-curvature="0"
       style="fill:#a40000;stroke-width:1.06666672" />
    <path
       id="path4383-5-1"
       d="m 620.03813,140.96238 v 21.81819 q 0,4.54545 -3.18176,7.72727 -3.18176,3.18182 -7.72725,3.18182 h -47.27275 v 47.27273 q 0,4.54545 -3.18186,7.72727 -3.18176,3.18182 -7.72726,3.18182 h -21.81813 q -4.54549,0 -7.72725,-3.18182 -3.18187,-3.18182 -3.18187,-7.72727 v -47.27273 h -47.27264 q -4.54549,0 -7.72736,-3.18182 -3.18176,-3.18182 -3.18176,-7.72727 v -21.81819 q 0,-4.54544 3.18176,-7.72727 3.18187,-3.18183 7.72736,-3.18183 H 518.22 V 82.780544 q 0,-4.545461 3.18187,-7.727275 3.18176,-3.181813 7.72725,-3.181813 h 21.81813 q 4.5455,0 7.72726,3.181813 3.18186,3.181814 3.18186,7.727275 v 47.272736 h 47.27275 q 4.54549,0 7.72725,3.18183 3.18176,3.18183 3.18176,7.72727 z"
       inkscape:connector-curvature="0"
       style="fill:#4e9a06;stroke-width:1.06666672" />
    <path
       id="path4510-9-2"
       d="m 461.56199,470.10525 v 21.81817 q 0,4.54547 -3.18186,7.72728 -3.18176,3.18181 -7.72726,3.18181 H 312.47111 q -4.54549,0 -7.72736,-3.18181 -3.18176,-3.18181 -3.18176,-7.72728 v -21.81817 q 0,-4.54546 3.18176,-7.72728 3.18187,-3.18182 7.72736,-3.18182 h 138.18176 q 4.5455,0 7.72726,3.18182 3.18186,3.18182 3.18186,7.72728 z"
       inkscape:connector-curvature="0"
       style="fill:#a40000;stroke-width:1.06666672" />
    <path
       id="path4510-9-9"
       d="m 650.51437,787.05764 v 21.81818 q 0,4.54546 -3.18187,7.72727 -3.18176,3.18182 -7.72725,3.18182 H 501.42349 q -4.5455,0 -7.72736,-3.18182 -3.18176,-3.18181 -3.18176,-7.72727 v -21.81818 q 0,-4.54546 3.18176,-7.72727 3.18186,-3.18183 7.72736,-3.18183 h 138.18176 q 4.54549,0 7.72725,3.18183 3.18187,3.18181 3.18187,7.72727 z"
       inkscape:connector-curvature="0"
       style="fill:#a40000;stroke-width:1.06666672" />
    <path
       id="path4383-6-3"
       d="m 455.46675,1058.2957 v 21.8182 q 0,4.5454 -3.18176,7.7273 -3.18186,3.1817 -7.72725,3.1817 h -47.27275 v 47.2728 q 0,4.5455 -3.18186,7.7272 -3.18187,3.1819 -7.72726,3.1819 h -21.81824 q -4.54538,0 -7.72725,-3.1819 -3.18176,-3.1817 -3.18176,-7.7272 v -47.2728 h -47.27275 q -4.54549,0 -7.72736,-3.1817 -3.18176,-3.1819 -3.18176,-7.7273 v -21.8182 q 0,-4.5454 3.18176,-7.7272 3.18187,-3.1819 7.72736,-3.1819 h 47.27275 v -47.2727 q 0,-4.54546 3.18176,-7.72728 3.18187,-3.18182 7.72725,-3.18182 h 21.81824 q 4.54539,0 7.72726,3.18182 3.18186,3.18182 3.18186,7.72728 v 47.2727 h 47.27275 q 4.54539,0 7.72725,3.1819 3.18176,3.1818 3.18176,7.7272 z"
       inkscape:connector-curvature="0"
       style="fill:#4e9a06;stroke-width:1.06666672" />
  </g>
</svg>
